<svg xmlns="http://www.w3.org/2000/svg" width="1024" height="768" viewBox="0 0 1024 768">
<defs><marker id="a1" viewBox="0 0 10 10" refX="9" refY="5" markerWidth="7" markerHeight="7" orient="auto-start-reverse"><path d="M 0 0 L 10 5 L 0 10 z" fill="#7C3527"/></marker>
<marker id="a2" viewBox="0 0 10 10" refX="9" refY="5" markerWidth="7" markerHeight="7" orient="auto-start-reverse"><path d="M 0 0 L 10 5 L 0 10 z" fill="#B44A32"/></marker></defs>
<rect width="1024" height="768" fill="#FFF9F3"/>
<rect x="32" y="76" width="440" height="420" rx="28" fill="#FFF2E8" stroke="#FADFD5" stroke-width="3"/>
<text x="252" y="132" text-anchor="middle" font-family="Hiragino Sans, Yu Gothic, sans-serif" font-size="34" font-weight="800" fill="#7C3527">状態</text>
<rect x="64" y="164" width="376" height="126" rx="18" fill="#FFFFFF" stroke="#B44A32" stroke-width="4" stroke-dasharray="10 7"/>
<text x="252" y="200" text-anchor="middle" font-family="Hiragino Sans, Yu Gothic, sans-serif" font-size="21" font-weight="700" fill="#7C3527">みんなが見にいく、途中のメモ</text>
<rect x="72" y="228" width="116" height="40" rx="20" fill="#FFF2E8"/>
<text x="130" y="254" text-anchor="middle" font-family="Hiragino Sans, Yu Gothic, sans-serif" font-size="15" font-weight="700" fill="#7C3527">請求書 No.</text>
<rect x="194" y="228" width="116" height="40" rx="20" fill="#FFF2E8"/>
<text x="252" y="254" text-anchor="middle" font-family="Hiragino Sans, Yu Gothic, sans-serif" font-size="15" font-weight="700" fill="#7C3527">金額 12,000円</text>
<rect x="318" y="228" width="116" height="40" rx="20" fill="#FFF2E8"/>
<text x="376" y="254" text-anchor="middle" font-family="Hiragino Sans, Yu Gothic, sans-serif" font-size="15" font-weight="700" fill="#7C3527">確度：低</text>
<path d="M 132 314 V 296" fill="none" stroke="#B44A32" stroke-width="3" stroke-dasharray="7 5" marker-end="url(#a2)"/>
<path d="M 252 314 V 296" fill="none" stroke="#B44A32" stroke-width="3" stroke-dasharray="7 5" marker-end="url(#a2)"/>
<path d="M 372 314 V 296" fill="none" stroke="#B44A32" stroke-width="3" stroke-dasharray="7 5" marker-end="url(#a2)"/>
<rect x="76" y="314" width="112" height="56" rx="16" fill="#7C3527"/><text x="132" y="348" text-anchor="middle" font-family="Hiragino Sans, Yu Gothic, sans-serif" font-size="18" font-weight="700" fill="#FFFFFF">受け取る</text>
<rect x="196" y="314" width="112" height="56" rx="16" fill="#7C3527"/><text x="252" y="348" text-anchor="middle" font-family="Hiragino Sans, Yu Gothic, sans-serif" font-size="18" font-weight="700" fill="#FFFFFF">読み取る</text>
<rect x="316" y="314" width="112" height="56" rx="16" fill="#7C3527"/><text x="372" y="348" text-anchor="middle" font-family="Hiragino Sans, Yu Gothic, sans-serif" font-size="18" font-weight="700" fill="#FFFFFF">照合する</text>
<text x="252" y="420" text-anchor="middle" font-family="Hiragino Sans, Yu Gothic, sans-serif" font-size="22" font-weight="700" fill="#7C3527">どのノードからも、見にいける</text>
<text x="252" y="456" text-anchor="middle" font-family="Hiragino Sans, Yu Gothic, sans-serif" font-size="20" font-weight="600" fill="#6F5C52">（これが「状態」）</text>
<rect x="552" y="76" width="440" height="420" rx="28" fill="#FFF2E8" stroke="#FADFD5" stroke-width="3"/>
<text x="772" y="132" text-anchor="middle" font-family="Hiragino Sans, Yu Gothic, sans-serif" font-size="34" font-weight="800" fill="#7C3527">迂回路</text>
<rect x="677" y="167" width="190" height="58" rx="16" fill="#7C3527"/><text x="772" y="203" text-anchor="middle" font-family="Hiragino Sans, Yu Gothic, sans-serif" font-size="22" font-weight="700" fill="#FFFFFF">照合する</text>
<path d="M 772 225 V 262 H 672 V 300" fill="none" stroke="#7C3527" stroke-width="4" marker-end="url(#a1)"/>
<path d="M 772 225 V 262 H 872 V 300" fill="none" stroke="#B44A32" stroke-width="4" stroke-dasharray="10 7" marker-end="url(#a2)"/>
<text x="636" y="254" text-anchor="middle" font-family="Hiragino Sans, Yu Gothic, sans-serif" font-size="17" font-weight="700" fill="#7C3527">合っていれば</text>
<text x="912" y="254" text-anchor="middle" font-family="Hiragino Sans, Yu Gothic, sans-serif" font-size="17" font-weight="700" fill="#B44A32">合わなければ</text>
<rect x="587" y="301" width="170" height="58" rx="16" fill="#FFFFFF" stroke="#7C3527" stroke-width="4"/><text x="672" y="336" text-anchor="middle" font-family="Hiragino Sans, Yu Gothic, sans-serif" font-size="20" font-weight="700" fill="#7C3527">計上する</text>
<rect x="787" y="301" width="170" height="58" rx="16" fill="#FFFFFF" stroke="#B44A32" stroke-width="4"/><text x="872" y="336" text-anchor="middle" font-family="Hiragino Sans, Yu Gothic, sans-serif" font-size="20" font-weight="700" fill="#B44A32">人が確かめる</text>
<text x="772" y="420" text-anchor="middle" font-family="Hiragino Sans, Yu Gothic, sans-serif" font-size="22" font-weight="700" fill="#7C3527">点線を描いていない図は、</text>
<text x="772" y="456" text-anchor="middle" font-family="Hiragino Sans, Yu Gothic, sans-serif" font-size="22" font-weight="700" fill="#7C3527">失敗した瞬間に止まります</text>
<rect x="32" y="530" width="960" height="200" rx="26" fill="#7C3527"/>
<text x="512" y="588" text-anchor="middle" font-family="Hiragino Sans, Yu Gothic, sans-serif" font-size="29" font-weight="800" fill="#FFFFFF">正常系だけの図は、設計としてはまだ半分です</text>
<text x="512" y="644" text-anchor="middle" font-family="Hiragino Sans, Yu Gothic, sans-serif" font-size="24" font-weight="700" fill="#FFFFFF">読み取りに失敗したら人間へ。金額が合わなければ差し戻す。</text>
<text x="512" y="698" text-anchor="middle" font-family="Hiragino Sans, Yu Gothic, sans-serif" font-size="23" font-weight="600" fill="#FADFD5">失敗したときの線まで描いて、はじめて設計になります</text>
</svg>
